<?xml version="1.0" encoding="UTF-8" standalone="no"?>
<!DOCTYPE svg PUBLIC "-//W3C//DTD SVG 1.1//EN"
 "http://www.w3.org/Graphics/SVG/1.1/DTD/svg11.dtd">
<!-- Generated by graphviz version 2.50.0 (20211209.0339)
 -->
<!-- Title: snakemake_dag Pages: 1 -->
<svg width="799pt" height="332pt"
 viewBox="0.00 0.00 799.00 332.00" xmlns="http://www.w3.org/2000/svg" xmlns:xlink="http://www.w3.org/1999/xlink">
<g id="graph0" class="graph" transform="scale(1 1) rotate(0) translate(4 328)">
<title>snakemake_dag</title>
<polygon fill="white" stroke="transparent" points="-4,4 -4,-328 795,-328 795,4 -4,4"/>
<!-- 0 -->
<g id="node1" class="node">
<title>0</title>
<path fill="none" stroke="#70d856" stroke-width="2" d="M420,-36C420,-36 349,-36 349,-36 343,-36 337,-30 337,-24 337,-24 337,-12 337,-12 337,-6 343,0 349,0 349,0 420,0 420,0 426,0 432,-6 432,-12 432,-12 432,-24 432,-24 432,-30 426,-36 420,-36"/>
<text text-anchor="middle" x="384.5" y="-15.5" font-family="sans" font-size="10.00">make_summary</text>
</g>
<!-- 1 -->
<g id="node2" class="node">
<title>1</title>
<path fill="none" stroke="#d85656" stroke-width="2" d="M55,-108C55,-108 12,-108 12,-108 6,-108 0,-102 0,-96 0,-96 0,-84 0,-84 0,-78 6,-72 12,-72 12,-72 55,-72 55,-72 61,-72 67,-78 67,-84 67,-84 67,-96 67,-96 67,-102 61,-108 55,-108"/>
<text text-anchor="middle" x="33.5" y="-87.5" font-family="sans" font-size="10.00">make_dag</text>
</g>
<!-- 1&#45;&gt;0 -->
<g id="edge1" class="edge">
<title>1&#45;&gt;0</title>
<path fill="none" stroke="grey" stroke-width="2" d="M67.11,-76.3C71.9,-74.72 76.8,-73.23 81.5,-72 165.6,-49.92 265.3,-34.48 326.73,-26.18"/>
<polygon fill="grey" stroke="grey" stroke-width="2" points="327.55,-29.6 337,-24.81 326.62,-22.66 327.55,-29.6"/>
</g>
<!-- 2 -->
<g id="node3" class="node">
<title>2</title>
<path fill="none" stroke="#56d89a" stroke-width="2" d="M669.5,-180C669.5,-180 525.5,-180 525.5,-180 519.5,-180 513.5,-174 513.5,-168 513.5,-168 513.5,-156 513.5,-156 513.5,-150 519.5,-144 525.5,-144 525.5,-144 669.5,-144 669.5,-144 675.5,-144 681.5,-150 681.5,-156 681.5,-156 681.5,-168 681.5,-168 681.5,-174 675.5,-180 669.5,-180"/>
<text text-anchor="middle" x="597.5" y="-159.5" font-family="sans" font-size="10.00">get_SARSr_wts_mut_bind_expr</text>
</g>
<!-- 2&#45;&gt;0 -->
<g id="edge2" class="edge">
<title>2&#45;&gt;0</title>
<path fill="none" stroke="grey" stroke-width="2" d="M571.81,-143.87C533.51,-118.34 461.38,-70.25 418.67,-41.78"/>
<polygon fill="grey" stroke="grey" stroke-width="2" points="420.55,-38.82 410.28,-36.19 416.66,-44.65 420.55,-38.82"/>
</g>
<!-- 9 -->
<g id="node10" class="node">
<title>9</title>
<path fill="none" stroke="#ced856" stroke-width="2" d="M654,-108C654,-108 541,-108 541,-108 535,-108 529,-102 529,-96 529,-96 529,-84 529,-84 529,-78 535,-72 541,-72 541,-72 654,-72 654,-72 660,-72 666,-78 666,-84 666,-84 666,-96 666,-96 666,-102 660,-108 654,-108"/>
<text text-anchor="middle" x="597.5" y="-87.5" font-family="sans" font-size="10.00">collapse_bcs_SARSr_wts</text>
</g>
<!-- 2&#45;&gt;9 -->
<g id="edge16" class="edge">
<title>2&#45;&gt;9</title>
<path fill="none" stroke="grey" stroke-width="2" d="M597.5,-143.7C597.5,-135.98 597.5,-126.71 597.5,-118.11"/>
<polygon fill="grey" stroke="grey" stroke-width="2" points="601,-118.1 597.5,-108.1 594,-118.1 601,-118.1"/>
</g>
<!-- 3 -->
<g id="node4" class="node">
<title>3</title>
<path fill="none" stroke="#5682d8" stroke-width="2" d="M204,-252C204,-252 55,-252 55,-252 49,-252 43,-246 43,-240 43,-240 43,-228 43,-228 43,-222 49,-216 55,-216 55,-216 204,-216 204,-216 210,-216 216,-222 216,-228 216,-228 216,-240 216,-240 216,-246 210,-252 204,-252"/>
<text text-anchor="middle" x="129.5" y="-231.5" font-family="sans" font-size="10.00">get_SARSr_DMS_mut_bind_expr</text>
</g>
<!-- 3&#45;&gt;0 -->
<g id="edge3" class="edge">
<title>3&#45;&gt;0</title>
<path fill="none" stroke="grey" stroke-width="2" d="M129.07,-215.74C129.28,-182.02 135.04,-107.55 179.5,-72 221.45,-38.45 282.3,-25.94 326.8,-21.37"/>
<polygon fill="grey" stroke="grey" stroke-width="2" points="327.25,-24.84 336.89,-20.44 326.61,-17.87 327.25,-24.84"/>
</g>
<!-- 8 -->
<g id="node9" class="node">
<title>8</title>
<path fill="none" stroke="#d8b456" stroke-width="2" d="M483.5,-180C483.5,-180 365.5,-180 365.5,-180 359.5,-180 353.5,-174 353.5,-168 353.5,-168 353.5,-156 353.5,-156 353.5,-150 359.5,-144 365.5,-144 365.5,-144 483.5,-144 483.5,-144 489.5,-144 495.5,-150 495.5,-156 495.5,-156 495.5,-168 495.5,-168 495.5,-174 489.5,-180 483.5,-180"/>
<text text-anchor="middle" x="424.5" y="-159.5" font-family="sans" font-size="10.00">collapse_bcs_SARSr_DMS</text>
</g>
<!-- 3&#45;&gt;8 -->
<g id="edge13" class="edge">
<title>3&#45;&gt;8</title>
<path fill="none" stroke="grey" stroke-width="2" d="M201.29,-215.97C244.26,-205.77 298.99,-192.78 343.5,-182.22"/>
<polygon fill="grey" stroke="grey" stroke-width="2" points="344.49,-185.58 353.41,-179.87 342.87,-178.77 344.49,-185.58"/>
</g>
<!-- 4 -->
<g id="node5" class="node">
<title>4</title>
<path fill="none" stroke="#d88556" stroke-width="2" d="M432.5,-252C432.5,-252 280.5,-252 280.5,-252 274.5,-252 268.5,-246 268.5,-240 268.5,-240 268.5,-228 268.5,-228 268.5,-222 274.5,-216 280.5,-216 280.5,-216 432.5,-216 432.5,-216 438.5,-216 444.5,-222 444.5,-228 444.5,-228 444.5,-240 444.5,-240 444.5,-246 438.5,-252 432.5,-252"/>
<text text-anchor="middle" x="356.5" y="-231.5" font-family="sans" font-size="10.00">get_SARS2_DMS_mut_bind_expr</text>
</g>
<!-- 4&#45;&gt;0 -->
<g id="edge4" class="edge">
<title>4&#45;&gt;0</title>
<path fill="none" stroke="grey" stroke-width="2" d="M268.3,-220.94C220.04,-212.34 167.14,-198.92 152.5,-180 142.71,-167.34 144.95,-158.11 152.5,-144 187.33,-78.93 270.38,-46.23 327.06,-30.95"/>
<polygon fill="grey" stroke="grey" stroke-width="2" points="328.16,-34.27 336.96,-28.38 326.41,-27.5 328.16,-34.27"/>
</g>
<!-- 4&#45;&gt;8 -->
<g id="edge14" class="edge">
<title>4&#45;&gt;8</title>
<path fill="none" stroke="grey" stroke-width="2" d="M373.31,-215.7C381.63,-207.14 391.81,-196.66 400.89,-187.3"/>
<polygon fill="grey" stroke="grey" stroke-width="2" points="403.43,-189.72 407.88,-180.1 398.41,-184.84 403.43,-189.72"/>
</g>
<!-- 5 -->
<g id="node6" class="node">
<title>5</title>
<path fill="none" stroke="#56d86b" stroke-width="2" d="M323,-180C323,-180 174,-180 174,-180 168,-180 162,-174 162,-168 162,-168 162,-156 162,-156 162,-150 168,-144 174,-144 174,-144 323,-144 323,-144 329,-144 335,-150 335,-156 335,-156 335,-168 335,-168 335,-174 329,-180 323,-180"/>
<text text-anchor="middle" x="248.5" y="-159.5" font-family="sans" font-size="10.00">get_WH1_mut_antibody_escape</text>
</g>
<!-- 5&#45;&gt;0 -->
<g id="edge5" class="edge">
<title>5&#45;&gt;0</title>
<path fill="none" stroke="grey" stroke-width="2" d="M252,-143.71C256.7,-124.27 266.73,-92.7 285.5,-72 297.32,-58.96 313.12,-48.53 328.62,-40.48"/>
<polygon fill="grey" stroke="grey" stroke-width="2" points="330.25,-43.58 337.68,-36.02 327.16,-37.3 330.25,-43.58"/>
</g>
<!-- 10 -->
<g id="node11" class="node">
<title>10</title>
<path fill="none" stroke="#9fd856" stroke-width="2" d="M384.5,-108C384.5,-108 306.5,-108 306.5,-108 300.5,-108 294.5,-102 294.5,-96 294.5,-96 294.5,-84 294.5,-84 294.5,-78 300.5,-72 306.5,-72 306.5,-72 384.5,-72 384.5,-72 390.5,-72 396.5,-78 396.5,-84 396.5,-84 396.5,-96 396.5,-96 396.5,-102 390.5,-108 384.5,-108"/>
<text text-anchor="middle" x="345.5" y="-87.5" font-family="sans" font-size="10.00">analyze_epitopes</text>
</g>
<!-- 5&#45;&gt;10 -->
<g id="edge18" class="edge">
<title>5&#45;&gt;10</title>
<path fill="none" stroke="grey" stroke-width="2" d="M272.48,-143.7C284.81,-134.8 300.02,-123.82 313.35,-114.2"/>
<polygon fill="grey" stroke="grey" stroke-width="2" points="315.74,-116.79 321.8,-108.1 311.64,-111.12 315.74,-116.79"/>
</g>
<!-- 6 -->
<g id="node7" class="node">
<title>6</title>
<path fill="none" stroke="#56d8c9" stroke-width="2" d="M779,-324C779,-324 714,-324 714,-324 708,-324 702,-318 702,-312 702,-312 702,-300 702,-300 702,-294 708,-288 714,-288 714,-288 779,-288 779,-288 785,-288 791,-294 791,-300 791,-300 791,-312 791,-312 791,-318 785,-324 779,-324"/>
<text text-anchor="middle" x="746.5" y="-303.5" font-family="sans" font-size="10.00">count_variants</text>
</g>
<!-- 6&#45;&gt;0 -->
<g id="edge6" class="edge">
<title>6&#45;&gt;0</title>
<path fill="none" stroke="grey" stroke-width="2" d="M758.39,-287.72C764.51,-277.76 771.34,-264.73 774.5,-252 778.35,-236.47 778.09,-231.59 774.5,-216 758.54,-146.65 761.53,-114.57 704.5,-72 663.98,-41.76 522.86,-27.86 442.2,-22.26"/>
<polygon fill="grey" stroke="grey" stroke-width="2" points="442.41,-18.77 432.2,-21.59 441.94,-25.75 442.41,-18.77"/>
</g>
<!-- 7 -->
<g id="node8" class="node">
<title>7</title>
<path fill="none" stroke="#56b1d8" stroke-width="2" d="M753.5,-252C753.5,-252 647.5,-252 647.5,-252 641.5,-252 635.5,-246 635.5,-240 635.5,-240 635.5,-228 635.5,-228 635.5,-222 641.5,-216 647.5,-216 647.5,-216 753.5,-216 753.5,-216 759.5,-216 765.5,-222 765.5,-228 765.5,-228 765.5,-240 765.5,-240 765.5,-246 759.5,-252 753.5,-252"/>
<text text-anchor="middle" x="700.5" y="-231.5" font-family="sans" font-size="10.00">calculate_bc_sera_AUC</text>
</g>
<!-- 6&#45;&gt;7 -->
<g id="edge11" class="edge">
<title>6&#45;&gt;7</title>
<path fill="none" stroke="grey" stroke-width="2" d="M735.13,-287.7C729.78,-279.56 723.3,-269.69 717.39,-260.7"/>
<polygon fill="grey" stroke="grey" stroke-width="2" points="720.16,-258.54 711.74,-252.1 714.31,-262.38 720.16,-258.54"/>
</g>
<!-- 7&#45;&gt;0 -->
<g id="edge7" class="edge">
<title>7&#45;&gt;0</title>
<path fill="none" stroke="grey" stroke-width="2" d="M704.56,-215.93C706.81,-205.6 709.37,-192.12 710.5,-180 715.21,-129.62 714.96,-102.38 674.5,-72 638.63,-45.07 515.96,-30.18 442.14,-23.46"/>
<polygon fill="grey" stroke="grey" stroke-width="2" points="442.34,-19.96 432.07,-22.56 441.72,-26.93 442.34,-19.96"/>
</g>
<!-- 7&#45;&gt;8 -->
<g id="edge12" class="edge">
<title>7&#45;&gt;8</title>
<path fill="none" stroke="grey" stroke-width="2" d="M635.44,-216.5C595.46,-206.36 544.01,-193.31 501.93,-182.64"/>
<polygon fill="grey" stroke="grey" stroke-width="2" points="502.56,-179.19 492,-180.12 500.84,-185.97 502.56,-179.19"/>
</g>
<!-- 7&#45;&gt;9 -->
<g id="edge15" class="edge">
<title>7&#45;&gt;9</title>
<path fill="none" stroke="grey" stroke-width="2" d="M702.92,-215.73C704.69,-196.58 704.7,-165.56 690.5,-144 681.86,-130.89 668.8,-120.66 655.17,-112.83"/>
<polygon fill="grey" stroke="grey" stroke-width="2" points="656.64,-109.65 646.17,-108.03 653.35,-115.83 656.64,-109.65"/>
</g>
<!-- 8&#45;&gt;0 -->
<g id="edge8" class="edge">
<title>8&#45;&gt;0</title>
<path fill="none" stroke="grey" stroke-width="2" d="M421.69,-143.72C418.55,-125.63 412.91,-96.5 405.5,-72 402.86,-63.28 399.41,-53.99 396.07,-45.65"/>
<polygon fill="grey" stroke="grey" stroke-width="2" points="399.3,-44.31 392.25,-36.41 392.83,-46.98 399.3,-44.31"/>
</g>
<!-- 8&#45;&gt;10 -->
<g id="edge17" class="edge">
<title>8&#45;&gt;10</title>
<path fill="none" stroke="grey" stroke-width="2" d="M404.97,-143.7C395.12,-134.97 383.01,-124.24 372.3,-114.75"/>
<polygon fill="grey" stroke="grey" stroke-width="2" points="374.61,-112.12 364.8,-108.1 369.97,-117.36 374.61,-112.12"/>
</g>
<!-- 9&#45;&gt;0 -->
<g id="edge9" class="edge">
<title>9&#45;&gt;0</title>
<path fill="none" stroke="grey" stroke-width="2" d="M545.67,-71.97C514.31,-61.66 474.27,-48.5 441.95,-37.88"/>
<polygon fill="grey" stroke="grey" stroke-width="2" points="442.78,-34.47 432.19,-34.67 440.59,-41.12 442.78,-34.47"/>
</g>
<!-- 10&#45;&gt;0 -->
<g id="edge10" class="edge">
<title>10&#45;&gt;0</title>
<path fill="none" stroke="grey" stroke-width="2" d="M355.14,-71.7C359.63,-63.64 365.06,-53.89 370.02,-44.98"/>
<polygon fill="grey" stroke="grey" stroke-width="2" points="373.16,-46.54 374.97,-36.1 367.05,-43.14 373.16,-46.54"/>
</g>
</g>
</svg>
